# xmcd
#
# Track frame offsets:
#	150
#	16777
#	32396
#	45773
#	63074
#	79666
#	94221
#	108555
#	124399
#	141999
#	158003
#	173461
#	186335
#	203707
#	219768
#	235306
#	251061
#	267863
#	284376
#	299243
#
# Disc length: 4188 seconds
#
# Revision: 0
# Processed by: cddbd v1.5.2PL0 Copyright (c) Steve Scherf et al.
# Submitted via: EasyCDDAExtractor 11.5.0.1
#
DISCID=16105a14
DTITLE=Various Artist - NCT 137
DYEAR=2010
DGENRE=Country
TTITLE0=Keith Urban - Put You In A Song
TTITLE1=Jerrod Niemann - What Do You Want
TTITLE2=Randy Houser - A Man Like Me
TTITLE3=Billy Currington - Let Me Down Easy
TTITLE4=Brett Eldredge - Raymond
TTITLE5=Loretta Lynn ft. Sheryl Crow and Miranda Lambert - Coal Miner's Daughter
TTITLE6=Blake Shelton - Who Are You When I'm Not Looking
TTITLE7=Lee Brice - Beautiful Every Time
TTITLE8=Gary Allan - Kiss Me When I'm Down
TTITLE9=Walker Hayes - Pants
TTITLE10=Jewel - Ten
TTITLE11=Craig Morgan - Still A Little Chicken Left On That Bone
TTITLE12=Matt Stillwell - Drunk Enough
TTITLE13=Frank Ortega - My Old Man
TTITLE14=Troy Olsen - Good Hands
TTITLE15=The Judds - I Will Stand By You
TTITLE16=Badhorse - Mississippi Rain
TTITLE17=Christian Kane - The House Rules
TTITLE18=JB and The Moonshine Band - Perfect Girl
TTITLE19=Mary Chapin Carpenter - The Way I Feel
EXTD=
EXTT0=
EXTT1=
EXTT2=
EXTT3=
EXTT4=
EXTT5=
EXTT6=
EXTT7=
EXTT8=
EXTT9=
EXTT10=
EXTT11=
EXTT12=
EXTT13=
EXTT14=
EXTT15=
EXTT16=
EXTT17=
EXTT18=
EXTT19=
PLAYORDER=
